<svg width="14" height="14" viewBox="0 0 14 14" fill="none" xmlns="http://www.w3.org/2000/svg">
<path d="M9.79337 0.333374H4.20671C4.02004 0.333374 3.84004 0.340041 3.66671 0.366707C1.56671 0.560041 0.333374 1.96671 0.333374 4.20671V9.79337C0.333374 12.0334 1.56671 13.44 3.66671 13.6334C3.84004 13.66 4.02004 13.6667 4.20671 13.6667H8.00004C8.26004 13.6667 8.42671 13.3734 8.32671 13.1334C8.13337 12.6734 8.00004 12.14 8.00004 11.6667C8.00004 9.64671 9.64671 8.00004 11.6667 8.00004C12.1734 8.00004 12.6667 8.10004 13.12 8.30004C13.3667 8.40671 13.6667 8.24004 13.6667 7.97337V4.20671C13.6667 1.78004 12.22 0.333374 9.79337 0.333374ZM8.65337 4.36671V7.54004C8.65337 7.54671 8.64671 7.55337 8.64671 7.56671C8.63337 8.38004 7.97337 9.04004 7.15337 9.04004C6.32671 9.04004 5.66004 8.36671 5.66004 7.54671C5.66004 6.72004 6.33337 6.05337 7.15337 6.05337C7.32671 6.05337 7.49337 6.08671 7.65337 6.14671V5.02004L5.00671 5.74004V8.20671C5.00671 8.21337 5.00004 8.22004 5.00004 8.22671C4.98671 9.04004 4.32671 9.69337 3.50671 9.69337C2.68004 9.69337 2.01337 9.02004 2.01337 8.20004C2.01337 7.38004 2.68671 6.70671 3.50671 6.70671C3.68004 6.70671 3.84671 6.74004 4.00004 6.80004V5.36004V4.19337C4.00004 3.57337 4.38671 3.07337 4.98004 2.91337L6.96671 2.36671C7.58671 2.20004 7.96671 2.36671 8.18004 2.52671C8.48671 2.76004 8.64004 3.14004 8.64004 3.64671V4.36671H8.65337Z" fill="#FACD66"/>
</svg>
