<svg xmlns="http://www.w3.org/2000/svg" xmlns:xlink="http://www.w3.org/1999/xlink" viewBox="15.6 15.6 16.8 16.8">
<g id="surface44713755">
<path style=" stroke:none;fill-rule:nonzero;fill:rgb(80.000001%,80.000001%,80.000001%);fill-opacity:1;" d="M 23.761719 24.238281 L 23.761719 23.761719 L 24.238281 23.761719 L 24.238281 24.238281 Z M 23.761719 24.238281 "/>
<path style=" stroke:none;fill-rule:nonzero;fill:rgb(0%,0%,100%);fill-opacity:1;" d="M 26.246094 15.601562 L 27.621094 17.722656 L 30.148438 17.847656 L 30.273438 20.375 L 32.398438 21.746094 L 31.246094 23.996094 L 32.398438 26.246094 L 30.277344 27.621094 L 30.152344 30.148438 L 27.625 30.273438 L 26.253906 32.398438 L 24.003906 31.246094 L 21.753906 32.398438 L 20.378906 30.277344 L 17.851562 30.152344 L 17.726562 27.625 L 15.601562 26.253906 L 16.753906 24.003906 L 15.601562 21.753906 L 17.722656 20.378906 L 17.847656 17.851562 L 20.375 17.726562 L 21.746094 15.601562 L 23.996094 16.753906 Z M 26.246094 15.601562 "/>
<path style=" stroke:none;fill-rule:nonzero;fill:rgb(100%,100%,100%);fill-opacity:1;" d="M 22.957031 26.902344 L 20.359375 24.304688 L 21.207031 23.457031 L 22.972656 25.21875 L 26.796875 21.507812 L 27.632812 22.371094 Z M 22.957031 26.902344 "/>
</g>
</svg>