<svg width="28" height="28" viewBox="0 0 28 28" fill="none" xmlns="http://www.w3.org/2000/svg">
<path d="M9.88371 3.23388C10.5977 3.25559 11.289 3.38026 11.9588 3.60806H12.0257C12.071 3.62959 12.105 3.65339 12.1277 3.67493C12.3782 3.75539 12.615 3.84606 12.8417 3.97073L13.2724 4.16339C13.4424 4.25406 13.6464 4.42293 13.7597 4.49206C13.873 4.55893 13.9977 4.62806 14.0997 4.70626C15.3588 3.74406 16.8877 3.22273 18.463 3.23388C19.1782 3.23388 19.8922 3.33493 20.571 3.56273C24.7542 4.92273 26.2615 9.51273 25.0024 13.5247C24.2884 15.5749 23.121 17.4461 21.5922 18.9749C19.4037 21.0943 17.0022 22.9756 14.417 24.5963L14.1337 24.7674L13.839 24.5849C11.2448 22.9756 8.82971 21.0943 6.62084 18.9636C5.10218 17.4347 3.93371 15.5749 3.20838 13.5247C1.92771 9.51273 3.43504 4.92273 7.66351 3.53893C7.99218 3.42559 8.33104 3.34626 8.67104 3.30206H8.80704C9.12551 3.25559 9.44171 3.23388 9.75904 3.23388H9.88371ZM19.9817 6.81539C19.517 6.65559 19.007 6.90606 18.837 7.38206C18.6784 7.85806 18.9277 8.37939 19.4037 8.54826C20.1302 8.82026 20.6164 9.53539 20.6164 10.3276V10.3627C20.5948 10.6223 20.673 10.8727 20.8317 11.0654C20.9904 11.2581 21.2284 11.3703 21.4777 11.3941C21.9424 11.3816 22.339 11.0087 22.373 10.5316V10.3967C22.407 8.80893 21.4448 7.37073 19.9817 6.81539Z" fill="white"/>
</svg>
